<?xml version="1.0" encoding="utf-8"?>
<!-- Generator: Adobe Illustrator 21.0.0, SVG Export Plug-In . SVG Version: 6.00 Build 0)  -->
<svg version="1.1" id="Layer_1" xmlns="http://www.w3.org/2000/svg" xmlns:xlink="http://www.w3.org/1999/xlink" x="0px" y="0px"
	 viewBox="0 0 100 125" style="enable-background:new 0 0 100 125;" xml:space="preserve">
<style type="text/css">
	.st0{fill:#FFFFFF;}
</style>
<path class="st0" d="M30.9,53.2c8.2,0,14.9-6.7,14.9-14.9c0-6.2-3.9-11.6-9.3-13.8c5-1.3,10.8-2,16.7-2c11,0,21.5,2.4,27.9,6.5
	c0.3,0.2,0.7,0.3,1.1,0.3c0.7,0,1.3-0.3,1.7-0.9c0.6-0.9,0.3-2.2-0.6-2.8c-7.1-4.5-18.1-7.1-30-7.1s-22.9,2.6-30,7.1
	c-0.1,0.1-0.2,0.1-0.2,0.2c-4.1,2.7-6.8,7.2-6.8,12.4C16,46.6,22.7,53.2,30.9,53.2z M30.9,27.5c6,0,10.9,4.9,10.9,10.9
	s-4.9,10.9-10.9,10.9S20,44.4,20,38.4C20,32.4,24.9,27.5,30.9,27.5z"/>
<path class="st0" d="M84,61.6c0-8.2-6.7-14.9-14.9-14.9c-8.2,0-14.9,6.7-14.9,14.9c0,6.2,3.9,11.6,9.3,13.8c-5,1.3-10.8,2-16.7,2
	c-11,0-21.5-2.4-27.9-6.5c-0.9-0.6-2.2-0.3-2.8,0.6c-0.6,0.9-0.3,2.2,0.6,2.8c7.1,4.5,18.1,7.1,30,7.1s22.9-2.6,30-7.1
	c0.1-0.1,0.2-0.1,0.2-0.2C81.3,71.4,84,66.8,84,61.6z M58.3,61.6c0-6,4.9-10.9,10.9-10.9S80,55.6,80,61.6s-4.9,10.9-10.9,10.9
	S58.3,67.6,58.3,61.6z"/>
</svg>
