<?xml version="1.0" encoding="utf-8"?>
<!-- Generator: Adobe Illustrator 21.0.0, SVG Export Plug-In . SVG Version: 6.00 Build 0)  -->
<svg version="1.1" id="Layer_1" xmlns="http://www.w3.org/2000/svg" xmlns:xlink="http://www.w3.org/1999/xlink" x="0px" y="0px"
	 viewBox="0 0 100 125" style="enable-background:new 0 0 100 125;" xml:space="preserve">
<style type="text/css">
	.st0{fill:#FFFFFF;}
</style>
<path class="st0" d="M70.3,36.2c-4.4,0-8.4,1.9-11.1,5V28.7c0-8.5-6.9-15.5-15.5-15.5c-5.8,0-10.9,3.2-13.5,7.9
	c-2.6-4.7-7.7-7.9-13.5-7.9c-1.1,0-2,0.9-2,2s0.9,2,2,2c6.3,0,11.5,5.1,11.5,11.5v20.7c0,1,0,2.4,0.1,3.8c0.1,1.1,0.9,1.9,2,1.9
	c0,0,0.1,0,0.1,0c1.1-0.1,1.9-1,1.9-2.1c-0.1-1.3-0.1-2.5-0.1-3.5V29.1c0-0.2,0.1-0.3,0.1-0.5c0-6.3,5.1-11.5,11.5-11.5
	s11.5,5.1,11.5,11.5v20.7c0,1,0,2.4,0.1,3.8c0.1,2-0.2,9.2-9.8,16.4c-12.1,9.1-25,13.3-25.1,13.4c-1,0.3-1.6,1.5-1.3,2.5
	c0.3,0.8,1.1,1.4,1.9,1.4c0.2,0,0.4,0,0.6-0.1c0.5-0.2,13.6-4.5,26.3-14c6-4.5,8.9-9,10.3-12.8c2.7,3.8,7.2,6.3,12.2,6.3
	c8.3,0,15-6.7,15-15C85.3,43,78.6,36.2,70.3,36.2z M70.3,62.2c-6.1,0-11-4.9-11-11c0-6.1,4.9-11,11-11s11,4.9,11,11
	C81.3,57.3,76.4,62.2,70.3,62.2z"/>
</svg>
