<?xml version="1.0" encoding="utf-8"?>
<!-- Generator: Adobe Illustrator 21.0.0, SVG Export Plug-In . SVG Version: 6.00 Build 0)  -->
<svg version="1.1" id="Layer_1" xmlns="http://www.w3.org/2000/svg" xmlns:xlink="http://www.w3.org/1999/xlink" x="0px" y="0px"
	 viewBox="0 0 100 125" style="enable-background:new 0 0 100 125;" xml:space="preserve">
<style type="text/css">
	.st0{fill:#FFFFFF;}
</style>
<path class="st0" d="M79.6,83.7c-1-0.5-2.2-0.2-2.7,0.7c-1.3,2.2-3.5,3.9-6,4.5c-2.6,0.6-5.2,0.1-7.4-1.4c-4-2.7-5.2-8.2-2.7-12.6
	c2-3.4,4-6.9,5.9-10.3c2.3-4,4.6-8,6.9-12.1c0.7-1.3,1.5-2.5,2.3-3.8c3.5-5.7,7.5-12.3,7.3-19.6c-0.3-12.1-10-21.9-22-22.3
	C55,6.6,49,8.9,44.5,13.2c-4.5,4.4-7,10.2-7,16.5c0,2.9,0.5,5.7,1.6,8.3c-1.5-0.4-3-0.6-4.6-0.6c-9.8,0-17.8,8-17.8,17.8
	c0,9.8,8,17.8,17.8,17.8s17.8-8,17.8-17.8c0-5.7-2.7-10.8-6.9-14c-2.5-3.3-3.9-7.3-3.9-11.4c0-5.2,2.1-10,5.8-13.6
	c3.7-3.6,8.7-5.5,13.9-5.3c9.9,0.4,17.9,8.5,18.2,18.4c0.1,6.2-3.3,11.9-6.7,17.4c-0.8,1.3-1.6,2.6-2.4,3.9c-2.3,4-4.6,8-6.9,12.1
	c-2,3.4-4,6.9-6,10.3c-3.5,6.1-1.8,14,3.9,17.9c2.2,1.5,4.8,2.3,7.5,2.3c1,0,2-0.1,3.1-0.3c3.6-0.8,6.8-3.2,8.6-6.4
	C80.9,85.5,80.6,84.3,79.6,83.7z M48.2,55.2c0,7.6-6.2,13.8-13.8,13.8s-13.8-6.2-13.8-13.8c0-7.6,6.2-13.8,13.8-13.8
	S48.2,47.6,48.2,55.2z"/>
</svg>
