<?xml version="1.0" encoding="utf-8"?>
<!-- Generator: Adobe Illustrator 21.0.0, SVG Export Plug-In . SVG Version: 6.00 Build 0)  -->
<svg version="1.1" id="Layer_1" xmlns="http://www.w3.org/2000/svg" xmlns:xlink="http://www.w3.org/1999/xlink" x="0px" y="0px"
	 viewBox="0 0 100 125" style="enable-background:new 0 0 100 125;" xml:space="preserve">
<style type="text/css">
	.st0{fill:#FFFFFF;}
</style>
<path class="st0" d="M86.6,77.2c-14.3,0-26.1-11.1-27.1-25.2h10.1c1.1,0,2-0.9,2-2s-0.9-2-2-2H59.4c1-14.1,12.8-25.3,27.1-25.3
	c1.1,0,2-0.9,2-2s-0.9-2-2-2c-16.6,0-30.2,13-31.2,29.3H44.6c-1-16.3-14.6-29.3-31.2-29.3c-1.1,0-2,0.9-2,2s0.9,2,2,2
	c14.4,0,26.2,11.2,27.1,25.3H30.5c-1.1,0-2,0.9-2,2s0.9,2,2,2h10.1c-1.1,14-12.8,25.2-27.1,25.2c-1.1,0-2,0.9-2,2s0.9,2,2,2
	c16.5,0,30.1-12.9,31.1-29.2h10.8C56.5,68.3,70,81.2,86.6,81.2c1.1,0,2-0.9,2-2S87.7,77.2,86.6,77.2z"/>
</svg>
