<?xml version="1.0" encoding="utf-8"?>
<!-- Generator: Adobe Illustrator 21.0.0, SVG Export Plug-In . SVG Version: 6.00 Build 0)  -->
<svg version="1.1" id="Layer_1" xmlns="http://www.w3.org/2000/svg" xmlns:xlink="http://www.w3.org/1999/xlink" x="0px" y="0px"
	 viewBox="0 0 100 125" style="enable-background:new 0 0 100 125;" xml:space="preserve">
<style type="text/css">
	.st0{fill:#FFFFFF;}
</style>
<path class="st0" d="M78.1,14.1c-8.8,0-16,7.2-16,16c0,6.6-5.4,12-12,12s-12-5.4-12-12c0-8.8-7.2-16-16-16s-16,7.2-16,16
	c0,1.1,0.9,2,2,2s2-0.9,2-2c0-6.6,5.4-12,12-12s12,5.4,12,12c0,5.8,3.1,10.9,7.7,13.7c-8,3.3-13.6,11.1-13.6,20.3
	c0,12.1,9.8,21.9,21.9,21.9s21.9-9.8,21.9-21.9c0-9.1-5.6-17-13.6-20.3C62.9,41,66,35.9,66,30.1c0-6.6,5.4-12,12-12s12,5.4,12,12
	c0,1.1,0.9,2,2,2s2-0.9,2-2C94.1,21.3,86.9,14.1,78.1,14.1z M67.9,64c0,9.9-8,17.9-17.9,17.9s-17.9-8-17.9-17.9s8-17.9,17.9-17.9
	S67.9,54.2,67.9,64z"/>
</svg>
