<?xml version="1.0" encoding="utf-8"?>
<!-- Generator: Adobe Illustrator 21.0.0, SVG Export Plug-In . SVG Version: 6.00 Build 0)  -->
<svg version="1.1" id="Layer_1" xmlns="http://www.w3.org/2000/svg" xmlns:xlink="http://www.w3.org/1999/xlink" x="0px" y="0px"
	 viewBox="0 0 100 125" style="enable-background:new 0 0 100 125;" xml:space="preserve">
<style type="text/css">
	.st0{fill:#FFFFFF;}
</style>
<path class="st0" d="M94.2,65.2c-1.1,0-2,0.9-2,2c0,5.1-4.1,9.3-9,9.3c-3,0-5.6-1.5-7.3-3.8c2.4-1.4,5.1-3.2,8-5.4
	C95.6,58.4,95.1,47.8,95,46.6c0-1.1-0.6-10.7-9.5-13.4c-4.7-1.4-8.6,0.3-11.4,2.6v-3c0-7.3-5.9-13.3-13-13.3c-4.7,0-8.7,2.5-11,6.3
	c-2.3-3.8-6.4-6.3-11-6.3s-8.7,2.5-11,6.3c-2.3-3.8-6.4-6.3-11-6.3c-7.2,0-13,6-13,13.3c0,1.1,0.9,2,2,2s2-0.9,2-2
	c0-5.1,4.1-9.3,9-9.3s9,4.2,9,9.3v34.4c0,1.1,0.9,2,2,2s2-0.9,2-2V32.8c0-5.1,4.1-9.3,9-9.3s9,4.2,9,9.3v34.4c0,1.1,0.9,2,2,2
	s2-0.9,2-2V32.8c0-5.1,4.1-9.3,9-9.3s9,4.2,9,9.3v34.4c0,1.3,0.2,2.6,0.6,3.9c-5,2.6-8.1,3.4-8.1,3.4c-1.1,0.3-1.7,1.3-1.5,2.4
	c0.2,0.9,1,1.5,1.9,1.5c0.2,0,0.3,0,0.5-0.1s3.5-0.9,8.9-3.7c2.4,3.5,6.3,5.8,10.8,5.8c7.2,0,13-6,13-13.3
	C96.2,66.1,95.3,65.2,94.2,65.2z M74.1,67.2V41.9c0.7-1.2,4.5-6.6,10.2-4.9c6.5,2,6.7,9.4,6.7,9.7c0,0.1,0,0.1,0,0.2
	c0,0.4,0.7,9.4-9.6,17.3c-2.6,2-5,3.5-7.1,4.9C74.2,68.4,74.1,67.8,74.1,67.2z"/>
</svg>
