<?xml version="1.0" encoding="utf-8"?>
<!-- Generator: Adobe Illustrator 21.0.0, SVG Export Plug-In . SVG Version: 6.00 Build 0)  -->
<svg version="1.1" id="Layer_1" xmlns="http://www.w3.org/2000/svg" xmlns:xlink="http://www.w3.org/1999/xlink" x="0px" y="0px"
	 viewBox="0 0 100 125" style="enable-background:new 0 0 100 125;" xml:space="preserve">
<style type="text/css">
	.st0{fill:#FFFFFF;}
</style>
<path class="st0" d="M22.5,44c5.9,0,11.1-3.3,13.7-8.1C38.9,40.8,44.1,44,50,44s11.1-3.3,13.7-8.1c2.7,4.8,7.8,8.1,13.7,8.1
	c8.7,0,15.7-7.1,15.7-15.7c0-1.1-0.9-2-2-2s-2,0.9-2,2C89.2,34.8,84,40,77.5,40s-11.7-5.3-11.7-11.7c0-1.1-0.9-2-2-2s-2,0.9-2,2
	C61.7,34.8,56.5,40,50,40s-11.7-5.3-11.7-11.7c0-1.1-0.9-2-2-2s-2,0.9-2,2C34.3,34.8,29,40,22.5,40s-11.7-5.3-11.7-11.7
	c0-1.1-0.9-2-2-2s-2,0.9-2,2C6.8,37,13.8,44,22.5,44z"/>
<path class="st0" d="M91.2,56c-1.1,0-2,0.9-2,2c0,6.5-5.3,11.7-11.7,11.7S65.7,64.4,65.7,58c0-1.1-0.9-2-2-2s-2,0.9-2,2
	c0,6.5-5.3,11.7-11.7,11.7S38.3,64.4,38.3,58c0-1.1-0.9-2-2-2s-2,0.9-2,2c0,6.5-5.3,11.7-11.7,11.7S10.8,64.4,10.8,58
	c0-1.1-0.9-2-2-2s-2,0.9-2,2c0,8.7,7.1,15.7,15.7,15.7c5.9,0,11.1-3.3,13.7-8.1c2.7,4.8,7.8,8.1,13.7,8.1s11.1-3.3,13.7-8.1
	c2.7,4.8,7.8,8.1,13.7,8.1C86,73.7,93,66.6,93,58C93.2,56.9,92.3,56,91.2,56z"/>
</svg>
