<?xml version="1.0" encoding="utf-8"?>
<!-- Generator: Adobe Illustrator 21.0.0, SVG Export Plug-In . SVG Version: 6.00 Build 0)  -->
<svg version="1.1" id="Layer_1" xmlns="http://www.w3.org/2000/svg" xmlns:xlink="http://www.w3.org/1999/xlink" x="0px" y="0px"
	 viewBox="0 0 100 125" style="enable-background:new 0 0 100 125;" xml:space="preserve">
<style type="text/css">
	.st0{fill:#FFFFFF;}
</style>
<path class="st0" d="M91.3,36.2c-0.5-6.8-4.2-12.4-10.2-15.3c-7-3.3-15.7-2.5-22.2,2c-2.1,1.4-4.1,3.2-6,5.3
	c-0.2,0.2-0.4,0.4-0.7,0.7c-0.9,0.9-1.6,1.6-2.2,2.3c-0.6-0.7-1.3-1.4-2.2-2.3c-0.3-0.3-0.5-0.5-0.7-0.7c-1.9-2-3.9-3.8-6-5.3
	c-6.5-4.6-15.2-5.4-22.2-2c-6,2.9-9.8,8.5-10.2,15.3C8,47.7,17.9,55.8,28.1,57.7c0.1,0,0.3,0,0.4,0c0.9,0,1.8-0.7,2-1.6
	c0.2-1.1-0.5-2.1-1.6-2.3c-8.5-1.6-16.7-8.1-16.1-17.3c0.4-5.4,3.2-9.7,8-12c5.7-2.7,12.8-2.1,18.2,1.7c1.8,1.3,3.6,2.9,5.3,4.7
	c0.2,0.2,0.5,0.5,0.8,0.8c0.7,0.7,2.7,2.7,3,3.5v44c0,1.1,0.9,2,2,2s2-0.9,2-2v-44c0.3-0.8,2.3-2.8,3-3.5c0.3-0.3,0.6-0.6,0.8-0.8
	c1.7-1.8,3.5-3.4,5.3-4.7c5.3-3.8,12.5-4.4,18.2-1.7c4.8,2.3,7.6,6.5,8,12c0.6,9.2-7.6,15.7-16.1,17.3c-1.1,0.2-1.8,1.3-1.6,2.3
	s1.3,1.8,2.3,1.6C82.1,55.8,92,47.7,91.3,36.2z"/>
</svg>
