<?xml version="1.0" encoding="utf-8"?>
<!-- Generator: Adobe Illustrator 21.0.0, SVG Export Plug-In . SVG Version: 6.00 Build 0)  -->
<svg version="1.1" id="Layer_1" xmlns="http://www.w3.org/2000/svg" xmlns:xlink="http://www.w3.org/1999/xlink" x="0px" y="0px"
	 viewBox="0 0 100 125" style="enable-background:new 0 0 100 125;" xml:space="preserve">
<style type="text/css">
	.st0{fill:#FFFFFF;}
</style>
<path class="st0" d="M19.7,58.9H38c0.2,0,0.5,0,0.7-0.1c0.7-0.2,1.2-0.9,1.3-1.6c0.1-0.6-0.1-1.2-0.5-1.6c-0.1-0.1-0.1-0.1-0.2-0.2
	c-3-2.9-4.6-6.8-4.6-10.9c0-8.4,6.8-15.2,15.2-15.2c8.4,0,15.2,6.8,15.2,15.2c0,4.2-1.7,8-4.6,10.9c-0.1,0.1-0.1,0.1-0.2,0.2
	c-0.4,0.4-0.6,1-0.5,1.6c0.1,0.7,0.6,1.4,1.3,1.6c0.2,0.1,0.4,0.1,0.7,0.1c0,0,0.1,0,0.1,0h18.3c1.1,0,2-0.9,2-2s-0.9-2-2-2H66.1
	c2-3.1,3.1-6.7,3.1-10.4c0-10.6-8.6-19.2-19.2-19.2s-19.2,8.6-19.2,19.2c0,3.8,1.1,7.4,3.1,10.4H19.7c-1.1,0-2,0.9-2,2
	S18.6,58.9,19.7,58.9z"/>
<path class="st0" d="M80.3,70.7H19.7c-1.1,0-2,0.9-2,2s0.9,2,2,2h60.5c1.1,0,2-0.9,2-2S81.4,70.7,80.3,70.7z"/>
</svg>
