<?xml version="1.0" encoding="utf-8"?>
<!-- Generator: Adobe Illustrator 21.0.0, SVG Export Plug-In . SVG Version: 6.00 Build 0)  -->
<svg version="1.1" id="Layer_1" xmlns="http://www.w3.org/2000/svg" xmlns:xlink="http://www.w3.org/1999/xlink" x="0px" y="0px"
	 viewBox="0 0 100 125" style="enable-background:new 0 0 100 125;" xml:space="preserve">
<style type="text/css">
	.st0{fill:#FFFFFF;}
</style>
<path class="st0" d="M95.3,78c0,0-2.1-3.1-2.2-6.1c-0.1-1.1-1-2-2.1-1.9c-1.1,0.1-2,1-1.9,2.1c0.1,1.6,0.5,3.2,1,4.6
	c-4.2-1.4-7.3-5.4-7.3-10.2V27.8c0-8.1-6.5-14.7-14.4-14.7c-5.3,0-9.9,2.9-12.4,7.3C53.5,16,48.9,13,43.6,13s-9.9,2.9-12.4,7.3
	C28.7,16,24,13,18.8,13c-8,0-14.4,6.6-14.4,14.7c0,1.1,0.9,2,2,2s2-0.9,2-2C8.3,21.8,13,17,18.8,17s10.4,4.8,10.4,10.7v38.7
	c0,1.1,0.9,2,2,2s2-0.9,2-2V27.8c0-5.9,4.7-10.7,10.4-10.7S54,21.8,54,27.8v38.7c0,1.1,0.9,2,2,2s2-0.9,2-2V27.8
	C58,21.8,62.7,17,68.4,17s10.4,4.8,10.4,10.7v38.7c0,6.7,4.4,12.4,10.4,14.1c-1.4,1.8-2.2,3.5-2.3,3.6c-0.5,1,0,2.2,1,2.7
	c0.3,0.1,0.6,0.2,0.8,0.2c0.8,0,1.5-0.4,1.8-1.2c0,0,1.6-3.4,4.1-5c0.5-0.3,0.8-0.8,0.9-1.3C95.7,79,95.6,78.5,95.3,78z"/>
</svg>
