<?xml version="1.0" encoding="utf-8"?>
<!-- Generator: Adobe Illustrator 21.0.0, SVG Export Plug-In . SVG Version: 6.00 Build 0)  -->
<svg version="1.1" id="Layer_1" xmlns="http://www.w3.org/2000/svg" xmlns:xlink="http://www.w3.org/1999/xlink" x="0px" y="0px"
	 viewBox="0 0 100 125" style="enable-background:new 0 0 100 125;" xml:space="preserve">
<style type="text/css">
	.st0{fill:#FFFFFF;}
</style>
<path class="st0" d="M83.7,18.9c0,0,0-0.1,0.1-0.1c0-0.1,0-0.1,0.1-0.2c0,0,0-0.1,0-0.1c0-0.1,0-0.1,0-0.2c0-0.1,0-0.1,0-0.2
	c0-0.1,0-0.1,0-0.2c0-0.1,0-0.1,0-0.2c0-0.1,0-0.1-0.1-0.2c0,0,0-0.1-0.1-0.1c0-0.1-0.1-0.1-0.1-0.2c0,0,0,0,0-0.1c0,0,0,0,0,0
	c0-0.1-0.1-0.1-0.2-0.2c0,0-0.1-0.1-0.1-0.1c0,0,0,0,0,0c0,0-0.1-0.1-0.1-0.1c0,0-0.1-0.1-0.1-0.1c-0.1,0-0.1-0.1-0.2-0.1
	c0,0-0.1,0-0.1-0.1c-0.1,0-0.2,0-0.2-0.1c0,0-0.1,0-0.1,0c-0.1,0-0.2,0-0.3,0c0,0-0.1,0-0.1,0c-0.1,0-0.2,0-0.3,0c0,0-0.1,0-0.1,0
	c-0.2,0.1-0.5,0.2-0.7,0.3c0,0,0,0,0,0c-0.1,0.1-12.2,8.4-20.3,3.4c-0.9-0.6-2.2-0.3-2.8,0.7c-0.6,0.9-0.3,2.2,0.7,2.8
	c2.6,1.6,5.4,2.2,8.2,2.2c2.1,0,4.2-0.3,6.1-0.9L40.5,56.7L30,46.2c-0.8-0.8-2-0.8-2.8,0c-0.8,0.8-0.8,2,0,2.8l10.5,10.5L16.7,80.4
	c-0.8,0.8-0.8,2,0,2.8c0.4,0.4,0.9,0.6,1.4,0.6s1-0.2,1.4-0.6l20.9-20.9L51,72.9c0.4,0.4,0.9,0.6,1.4,0.6s1-0.2,1.4-0.6
	c0.8-0.8,0.8-2,0-2.8L43.3,59.5l32.1-32.1c-1.2,4.5-1.5,9.7,1.3,14.2c0.6,0.9,1.8,1.2,2.8,0.7c0.9-0.6,1.2-1.8,0.7-2.8
	c-5-8.1,3.3-20.2,3.4-20.3c0,0,0,0,0,0c0-0.1,0.1-0.1,0.1-0.2C83.6,19,83.7,19,83.7,18.9z"/>
</svg>
